<?xml version="1.0" encoding="utf-8"?>
<!-- Generator: Adobe Illustrator 28.0.0, SVG Export Plug-In . SVG Version: 6.00 Build 0)  -->
<svg version="1.1" id="Layer_1" xmlns="http://www.w3.org/2000/svg" xmlns:xlink="http://www.w3.org/1999/xlink" x="0px" y="0px"
	 viewBox="0 0 5692 2016" style="enable-background:new 0 0 5692 2016;" xml:space="preserve">
<style type="text/css">
	.st0{clip-path:url(#SVGID_00000059286392781678043030000014931464934258407830_);}
	.st1{clip-path:url(#SVGID_00000050628302532952940080000012421040915281318072_);}
	.st2{clip-path:url(#SVGID_00000029025725952639447790000005535308381012537768_);}
</style>
<g>
	<g>
		<defs>
			<rect id="SVGID_1_" x="200.3" y="205.3" width="5291.3" height="1619.5"/>
		</defs>
		<clipPath id="SVGID_00000023239148160554655070000009994617123506141082_">
			<use xlink:href="#SVGID_1_"  style="overflow:visible;"/>
		</clipPath>
		<g style="clip-path:url(#SVGID_00000023239148160554655070000009994617123506141082_);">
			<g>
				<g>
					<defs>
						<rect id="SVGID_00000008868412538192298110000009827193413660091568_" x="267.5" y="268.2" width="1282.1" height="1484.1"/>
					</defs>
					<clipPath id="SVGID_00000073002076214743862770000002032041563294239105_">
						<use xlink:href="#SVGID_00000008868412538192298110000009827193413660091568_"  style="overflow:visible;"/>
					</clipPath>
					<g style="clip-path:url(#SVGID_00000073002076214743862770000002032041563294239105_);">
						<path d="M1109.4,1683.3c-371.4,0-672.6-301.1-672.6-672.6S738,338.1,1109.4,338.1c167.6,0,321,61.3,438.7,162.8
							c-135.2-142.9-326.6-232.1-538.8-232.1c-409.7,0-741.8,332.1-741.8,741.8s332.1,741.8,741.8,741.8
							c212.3,0,403.6-89.2,538.8-232C1430.4,1621.9,1277.1,1683.3,1109.4,1683.3"/>
					</g>
				</g>
			</g>
			<g>
				<g>
					<defs>
						<rect id="SVGID_00000020375047925963000420000003472363091650338984_" x="500.7" y="746.9" width="1241" height="888.6"/>
					</defs>
					<clipPath id="SVGID_00000029744019422709941800000009046665660002084746_">
						<use xlink:href="#SVGID_00000020375047925963000420000003472363091650338984_"  style="overflow:visible;"/>
					</clipPath>
					<g style="clip-path:url(#SVGID_00000029744019422709941800000009046665660002084746_);">
						<path d="M1676,747.9c11.1,46.7,17.1,95.3,17.1,145.4c0,344.9-279.6,624.4-624.5,624.4c-251,0-467.4-148.1-566.6-361.7
							c65.5,274.7,312.6,479,607.4,479c344.9,0,624.5-279.6,624.5-624.4C1733.9,916.8,1713.1,827.8,1676,747.9"/>
					</g>
				</g>
			</g>
			<path d="M1138.6,390.1c-113.2,0-217.8,37-302.3,99.7c64.5-29.7,136.3-46.2,211.9-46.2c280.6,0,508.1,227.5,508.1,508.1
				c0,167.4-81,315.9-205.9,408.5c174.8-80.3,296.2-256.9,296.2-461.9C1646.7,617.6,1419.2,390.1,1138.6,390.1"/>
		</g>
	</g>
	<g>
		<path d="M2037.5,1474.9V564.2h90v454.1l-18,145.3l18,149.2v162.1H2037.5z M2350.1,1487.8c-46.3,0-87.9-9.4-124.8-28.3
			s-67.1-44.8-90.7-77.8c-23.6-33-38-71.4-43.1-115.1v-189.1c5.1-44.6,19.7-83.4,43.7-116.4c24-33,54.7-58.5,92-76.5
			c37.3-18,78.2-27,122.8-27c55.7,0,105.9,13.9,150.5,41.8s80,65.6,106.1,113.2s39.2,101.4,39.2,161.4c0,59.2-12.9,112.3-38.6,159.5
			s-61.1,84.7-106.1,112.5C2456.2,1473.9,2405.8,1487.8,2350.1,1487.8z M2334.6,1401.6c42.9,0,80.6-9.6,113.2-28.9
			s58.1-46.3,76.5-81c18.4-34.7,27.7-74.4,27.7-119c0-45.4-9.2-85.3-27.7-119.6c-18.4-34.3-44-61.3-76.5-81s-69.9-29.6-111.9-29.6
			c-42,0-79.1,9.9-111.3,29.6s-57.2,46.7-75.2,81c-18,34.3-27,74.2-27,119.6c0,44.6,9,84.3,27,119c18,34.7,42.9,61.8,74.6,81
			S2292.6,1401.6,2334.6,1401.6z"/>
		<path d="M3063.9,1487.8c-58.3,0-111.2-14.1-158.8-42.4s-85.3-66.5-113.2-114.5c-27.9-48-41.8-101.6-41.8-160.8
			c0-58.3,13.9-111,41.8-158.2c27.9-47.2,65.6-84.7,113.2-112.5s100.5-41.8,158.8-41.8c59.2,0,112.3,13.7,159.5,41.2
			s84.7,65,112.5,112.5s41.8,100.5,41.8,158.9c0,60-13.9,113.8-41.8,161.4s-65.4,85.5-112.5,113.8S3123.1,1487.8,3063.9,1487.8z
			 M3063.9,1400.3c42.9,0,80.8-9.9,113.8-29.6c33-19.7,59.2-47.2,78.5-82.3s29-74.6,29-118.3s-9.7-82.5-29-116.4
			s-45.5-60.7-78.5-80.4c-33-19.7-71-29.6-113.8-29.6c-42,0-79.8,9.9-113.2,29.6s-59.6,46.5-78.5,80.4s-28.3,72.7-28.3,116.4
			c0,44.6,9.4,84.2,28.3,119s45,62,78.5,81.7S3021.9,1400.3,3063.9,1400.3z"/>
		<path d="M3520.6,1474.9V870.4h90v604.5H3520.6z M3610.6,1122.5l-37.3-16.7c0-76.3,18.6-136.8,56-181.4
			c37.3-44.6,88.5-66.9,153.7-66.9c30,0,57.4,5.4,82.3,16.1s48,27.7,69.5,50.8l-59.2,63c-14.6-16.3-30.7-27.9-48.2-34.7
			s-37.5-10.3-59.8-10.3c-46.3,0-84,15.2-113.2,45.7S3610.6,1063.3,3610.6,1122.5z"/>
		<path d="M4271.8,1487.8c-57.5,0-108.9-13.9-154.4-41.8c-45.5-27.9-81.2-65.4-107.4-112.5s-39.2-100.3-39.2-159.5
			c0-60,13.1-113.8,39.2-161.4s62-85.3,107.4-113.2c45.4-27.9,96.5-41.8,153.1-41.8c46.3,0,87.7,9.2,124.1,27.7s66,44.2,88.8,77.2
			s36.7,71.4,41.8,115.1v189.1c-5.2,43.7-19.1,82.3-41.8,115.8s-52.3,59.4-88.8,77.8S4317.2,1487.8,4271.8,1487.8z M4285.9,1401.6
			c62.6,0,113-21,151.1-63c38.2-42,57.2-97.3,57.2-165.9c0-45.4-8.8-85.5-26.4-120.3c-17.6-34.7-42-61.7-73.3-81
			c-31.3-19.3-68-28.9-110-28.9c-42.9,0-80.8,9.9-113.8,29.6s-59.2,47-78.5,81.7s-28.9,74.4-28.9,119c0,44.6,9.6,84,28.9,118.3
			c19.3,34.3,45.7,61.3,79.1,81S4243,1401.6,4285.9,1401.6z M4489.1,1474.9v-162.1l18-149.2l-18-145.3V870.4h90v604.5H4489.1z"/>
		<path d="M5024.2,1487.8c-56.6,0-107.6-13.9-153.1-41.8c-45.5-27.9-81.5-65.4-108-112.5c-26.6-47.2-39.9-100.3-39.9-159.5
			c0-60,13.3-113.8,39.9-161.4c26.6-47.6,62.4-85.3,107.4-113.2c45-27.9,95.8-41.8,152.4-41.8c46.3,0,87.7,9.2,124.1,27.7
			s66.2,44.2,89.4,77.2s36.9,71.4,41.2,115.1v189.1c-5.2,43.7-19.1,82.3-41.8,115.8s-52.1,59.4-88.1,77.8
			S5070.5,1487.8,5024.2,1487.8z M5038.4,1401.6c63.5,0,114-21,151.8-63c37.7-42,56.6-97.3,56.6-165.9c0-45.4-8.6-85.5-25.7-120.3
			c-17.2-34.7-41.6-61.7-73.3-81c-31.7-19.3-68.6-28.9-110.6-28.9c-42.9,0-80.8,9.9-113.8,29.6s-59,47-77.8,81.7
			c-18.9,34.7-28.3,74.4-28.3,119c0,44.6,9.4,84,28.3,118.3c18.9,34.3,45,61.3,78.5,81S4995.5,1401.6,5038.4,1401.6z M5241.6,1729.6
			v-410.3l18-147.9l-18-146.6V870.4h91.3v859.2H5241.6z"/>
	</g>
</g>
</svg>
